<svg xmlns="http://www.w3.org/2000/svg" xmlns:xlink="http://www.w3.org/1999/xlink" viewBox="0 0 495.13 410.7"><defs><style>.cls-1,.cls-3{fill:none;}.cls-2{clip-path:url(#clip-path);}.cls-3{stroke:#000;stroke-miterlimit:10;stroke-width:4.27px;}.cls-4{font-size:44px;font-family:JosefinSans-Bold, Josefin Sans;font-weight:700;}.cls-5{letter-spacing:-0.02em;}.cls-6{letter-spacing:-0.1em;}</style><clipPath id="clip-path"><circle id="mane" class="cls-1" cx="235.84" cy="161.33" r="81.7"/></clipPath></defs><title>Artboard 1</title><g id="Logo"><g class="cls-2"><g id="lion"><path d="M398,195.36l-.89-.86q-10.44-10-21-19.89c-9-8.5-18.06-17-27.18-25.39h18c-1.49-1.4-2.68-2.56-3.92-3.68q-22-19.75-44-39.57a21.07,21.07,0,0,1-2.42-2.19c-3.61-1.69-14.81-1.84-18.53-2-3.18-.14-6.35-.37-9.73-.57l7.67-4.5-.06-.31c-9.86-1.23-20.68-.19-30.61,0-3.83,0-8.65,3.19-12.12,4.7l5.86-9.91L253.42,93l-19.84,6.41c-.08,0-.15.13-.23.14-5.37.74-6.2,16.2-7.16,20.38-.42,1.84-.79,3.69-1.31,5.5a5.3,5.3,0,0,1-1.17,2.21c-4.3,4.47-8.69,8.87-13,13.35-1.64,1.72-.9,5.71-1,7.77a2.5,2.5,0,0,1-.8,1.66c-7.64,5.81-15.38,11.5-23.06,17.27,1.14,1.8,2.15,3.42,3.18,5,.87,1.36,1.89,2.64,2.62,4.07a7.9,7.9,0,0,1,.69,2.78,21.31,21.31,0,0,1,.06,3.66,2.89,2.89,0,0,0,1.32,2.9c5,3.17-.76,16.08,4.16,21.33,2.56,2.73,5.12,5.48,7.82,8.07a30.42,30.42,0,0,0,9.81,5.85,3.66,3.66,0,0,0,1,0c-.48-1.77-.92-3.46-1.39-5.21a10.85,10.85,0,0,1,2.87,1.3,4.81,4.81,0,0,1,1.37,2.46c1.51,6.64,2.42,13.6,4.48,20.09a2.55,2.55,0,0,0,1,1.45c11.14,5.62,22.31,11.19,33.81,16.93-4.41-7.21-8.65-14.13-12.9-21.06l.2-.24c18,7.23,35.95,14.8,53.86,22.33l.4-.39c-2.92-7.66-6.18-15.19-9.34-22.75a5.35,5.35,0,0,1-.18-.74c7.54,1,15.08,2,22.62,2.94,2.87.37,12.31,2.41,12-.37-.54-4.54-4.24-16.56-2.82-18.68,1.29-1.94,36.81,4.34,41.4-1.48a10.71,10.71,0,0,1,9.3-4.41c3.11.28,3.17-.08,4.84-1l-8-7.85c.66-.06.95-.11,1.25-.12,11.48-.26,22.94-.6,34.41-1.09l.21-.56Zm-183.62,13-6.9-3.62c.72,2.47,1.4,4.76,2.07,7.05l-.26.16c-2.5-2.5-9.86-7.82-9.77-11.7.08-3,0-6,0-9.24,3,.34,5.38,1.09,7.27,3,1.14,1.15,2.37,2.21,3.51,3.37.35.36.81,1,.73,1.34-.59,2.89,2.42,6.8,3.59,9.36Zm62.67,25.17q-6.68-2.25-13.38-4.43c-3.5-1.14-7.36-1.49-9.54-4.71-3.9-5.77-7.76-11.56-11.51-17.43l.14-.13,34.38,26.54Zm9-78.09-.14.24L350,207.12l-.13.25-65.51-20.15,11.21,32.19c-1.82-1.94-3.39-3.59-4.94-5.26-1.17-1.26-2.31-2.54-3.45-3.81l-6.06-6.73c-7.92-8.74-16-17.28-23.86-26.13-2.44-2.75-4.82-5.54-7.23-8.32a1.71,1.71,0,0,1-.17-.4l46.36,7.06.14-.33L254.82,141l8.5-7.67-10.53-9.43c.3,1.82.25,3.38.84,4.63,2.31,4.93-8.44,10.73-11.4,13.15-.31.25-.65.47-1.07.77l6.38,12.91-25.8,20.4c-.38-.88-.8-1.73-1.12-2.61-.57-1.56-1.28-1.71-4.8,0a10.51,10.51,0,0,1-6.37.91c-.22,0-.35.16-.69.41,2.38.69,4.65,1.4,7,2a2.86,2.86,0,0,1,2.43,2.16c.43,1.69,1.09,3.32,1.61,5a1.17,1.17,0,0,1-.08,1c-2.23,2.17-4.51,4.29-6.92,6.56-2.39-1.69-4.2-3.68-7.31-3.85-3.65-.19-6.37-2-8.69-4.61-3.45-3.91,3.58-6.45,5.37-8.46a44.8,44.8,0,0,0,4-6.09l-.29-.33L200,170.49c-1.62-3.47-5.06-1.73-7.76-2.79.74-.64,1.46-1.35,2.27-1.95,6.41-4.72,12.86-9.41,19.24-14.17a3.75,3.75,0,0,0,1-2,7.68,7.68,0,0,0,0-1.92c0-14.45,25-21.44,35.21-26.69.07,0,.11-.14.39-.5a112.77,112.77,0,0,0-12.89,2.36c-2.08.54-4.12,1.21-6.46,1.91.78-5.77,2.69-11.48,4.16-17.1a3.42,3.42,0,0,1,2.51-2.25c1.35-.48,2.72-.9,4.38-1.44-1.33,4.17-2.61,8.17-3.95,12.38,1.55-.68,3-1.24,4.32-1.92,9.82-5,18.48-10.85,29.76-10.65-2,1.58-9.94,7.66-11.88,9.17,1.25.16,8.52-1.73,9.61-1.69,12.85.46,23.21-.34,36,1.13,0,0,3.11.52,3.71,1,10.28,8.65,14.08,13.33,23.78,22.63-6.41-.62-52.52-7.83-59.28-8.49,18.15,18.38,83.35,45.29,101.43,63.59Z"/><path d="M228,147.28c-1.38.12-2.75.47-4.14.57a3.86,3.86,0,0,1-2.21-.45,32.55,32.55,0,0,1-3.16-2.6l-.34.11c.12,1.26.28,2.51.36,3.78a4,4,0,0,1-.8,3.17c-1.68,2-3.15,4.16-4.69,6.27s-3.11,4.37-4.67,6.56l.31.32c1.05-.59,2.12-1.13,3.14-1.76,3.13-1.92,6.23-3.91,9.38-5.81a29.8,29.8,0,0,1,5.61-3.07,50.13,50.13,0,0,1,6.86-1.35c.86-.17,1.7-.43,2.9-.74-2.59-1.71-4.78-3.19-7-4.61A2.63,2.63,0,0,0,228,147.28Z"/><path d="M229.05,142c.17-.26.4-.48.59-.73l3-4-.24-.32L222,142c1.34.54,2.22.87,3.08,1.24C227.56,144.23,227.55,144.23,229.05,142Z"/></g></g><path id="circle" class="cls-3" d="M237.66,78.64a81.56,81.56,0,1,0,81.56,81.56A81.56,81.56,0,0,0,237.66,78.64Zm0,159.62a78,78,0,1,1,78-78A78,78,0,0,1,237.66,238.26Z"/></g><g id="alus_lauva" data-name="alus lauva"><text class="cls-4" transform="translate(96.84 283.82)">ALUS L<tspan class="cls-5" x="160.25" y="0">A</tspan><tspan x="189.77" y="0">U</tspan><tspan class="cls-6" x="223.03" y="0">V</tspan><tspan x="251.02" y="0">A</tspan></text></g></svg>