<svg xmlns="http://www.w3.org/2000/svg" xmlns:xlink="http://www.w3.org/1999/xlink" viewBox="0 0 308.53 208.81"><defs><style>.cls-1,.cls-3{fill:none;}.cls-2{clip-path:url(#clip-path);}.cls-3{stroke:#000;stroke-miterlimit:10;stroke-width:4.27px;}.cls-4{isolation:isolate;}</style><clipPath id="clip-path"><circle class="cls-1" cx="138.47" cy="84.83" r="81.7"/></clipPath></defs><title>Asset 3</title><g id="Layer_2" data-name="Layer 2"><g id="Layer_1-2" data-name="Layer 1"><g id="Logo"><g class="cls-2"><g id="lion"><path d="M300.63,118.86l-.89-.86q-10.44-10-21-19.89c-9-8.5-18.06-17-27.18-25.39h18c-1.49-1.4-2.68-2.56-3.92-3.68q-22-19.76-44-39.57a21.84,21.84,0,0,1-2.42-2.19c-3.61-1.69-14.81-1.84-18.53-2-3.18-.14-6.35-.37-9.73-.57l7.67-4.5-.06-.31c-9.86-1.23-20.68-.19-30.61,0-3.83,0-8.65,3.19-12.12,4.7l5.86-9.91-5.65,1.81-19.84,6.41c-.08,0-.15.13-.23.14-5.37.74-6.2,16.2-7.16,20.38-.42,1.83-.79,3.69-1.31,5.5a5.33,5.33,0,0,1-1.17,2.2c-4.3,4.48-8.69,8.87-13,13.36-1.64,1.72-.9,5.71-1,7.77a2.5,2.5,0,0,1-.8,1.66c-7.64,5.81-15.38,11.5-23.06,17.27,1.14,1.8,2.15,3.42,3.18,5,.87,1.36,1.89,2.64,2.62,4.07A7.79,7.79,0,0,1,95,103,20.33,20.33,0,0,1,95,106.7a2.9,2.9,0,0,0,1.32,2.9c5,3.17-.76,16.08,4.16,21.33,2.56,2.73,5.12,5.48,7.82,8.07a30.56,30.56,0,0,0,9.81,5.85,4.18,4.18,0,0,0,1,0c-.48-1.77-.92-3.46-1.39-5.21a10.47,10.47,0,0,1,2.87,1.3A4.79,4.79,0,0,1,122,143.4c1.51,6.64,2.42,13.6,4.48,20.09a2.6,2.6,0,0,0,1,1.45c11.14,5.62,22.31,11.19,33.81,16.93-4.41-7.21-8.65-14.13-12.9-21.06l.2-.24c18,7.23,35.95,14.8,53.86,22.33l.4-.39c-2.92-7.66-6.18-15.19-9.34-22.75a5,5,0,0,1-.18-.74c7.54,1,15.08,2,22.62,2.94,2.87.37,12.31,2.41,12-.37-.54-4.54-4.24-16.56-2.82-18.68,1.29-1.94,36.81,4.34,41.4-1.48a10.68,10.68,0,0,1,9.3-4.41c3.11.28,3.17-.08,4.84-1l-8-7.86c.66,0,.95-.11,1.25-.11q17.22-.39,34.41-1.09l.21-.56ZM117,131.86l-6.9-3.62c.72,2.47,1.4,4.76,2.07,7l-.26.16c-2.5-2.5-9.86-7.82-9.77-11.7.08-3,0-6,0-9.24,3,.34,5.38,1.09,7.27,3,1.14,1.15,2.37,2.21,3.51,3.37.35.36.81,1,.73,1.34-.59,2.89,2.42,6.8,3.59,9.36ZM179.68,157q-6.68-2.25-13.38-4.42c-3.5-1.14-7.36-1.49-9.54-4.72-3.9-5.77-7.76-11.55-11.51-17.43l.14-.13,34.38,26.54Zm9-78.08-.14.24,64.09,51.43-.13.25L187,110.72l11.21,32.19c-1.82-1.94-3.39-3.59-4.94-5.26-1.17-1.26-2.31-2.54-3.45-3.81l-6.06-6.73c-7.92-8.74-16-17.28-23.86-26.13-2.44-2.75-4.82-5.54-7.23-8.32a2,2,0,0,1-.17-.4l46.36,7.06L199,99,157.45,64.5l8.5-7.67L155.42,47.4c.3,1.82.25,3.37.84,4.62,2.31,4.93-8.44,10.73-11.4,13.15-.31.25-.65.47-1.07.77l6.38,12.92-25.8,20.39c-.38-.88-.8-1.73-1.12-2.61-.57-1.56-1.28-1.71-4.8,0a10.37,10.37,0,0,1-6.37.91c-.22,0-.35.17-.69.42,2.38.69,4.65,1.39,7,2a2.85,2.85,0,0,1,2.43,2.16c.43,1.69,1.09,3.32,1.61,5a1.14,1.14,0,0,1-.08,1c-2.23,2.17-4.51,4.28-6.92,6.56-2.39-1.69-4.2-3.68-7.31-3.86-3.65-.19-6.37-2-8.69-4.61-3.45-3.91,3.58-6.45,5.37-8.46a43.19,43.19,0,0,0,4-6.09l-.29-.33L102.63,94c-1.62-3.47-5.06-1.73-7.76-2.79.74-.64,1.46-1.35,2.27-2,6.41-4.72,12.86-9.41,19.24-14.17a3.74,3.74,0,0,0,1-2,7.71,7.71,0,0,0,0-1.92c0-14.45,25-21.44,35.21-26.69.07,0,.11-.14.39-.5a110.63,110.63,0,0,0-12.89,2.36c-2.08.54-4.12,1.21-6.46,1.91.78-5.77,2.69-11.48,4.16-17.1a3.42,3.42,0,0,1,2.51-2.25c1.35-.48,2.72-.9,4.38-1.44-1.33,4.17-2.61,8.17-4,12.38,1.55-.68,3-1.24,4.32-1.92,9.82-5,18.48-10.85,29.76-10.65-2,1.58-9.94,7.66-11.88,9.17,1.25.16,8.52-1.73,9.61-1.69,12.85.46,23.21-.34,36,1.13,0,0,3.11.52,3.71,1C222.53,45.52,226.33,50.2,236,59.5c-6.41-.62-52.52-7.83-59.28-8.49C194.9,69.39,260.1,96.3,278.18,114.6Z"/><path d="M130.63,70.77c-1.38.12-2.75.48-4.14.58a4,4,0,0,1-2.21-.45,34.08,34.08,0,0,1-3.16-2.6l-.34.11c.12,1.25.28,2.5.36,3.78a4,4,0,0,1-.8,3.17c-1.68,2-3.15,4.16-4.69,6.27S112.54,86,111,88.19l.31.32c1-.59,2.12-1.13,3.14-1.76,3.13-1.92,6.23-3.91,9.38-5.81a29.14,29.14,0,0,1,5.61-3.07,48.65,48.65,0,0,1,6.86-1.35c.86-.17,1.7-.43,2.9-.75-2.59-1.71-4.78-3.19-7-4.61A2.7,2.7,0,0,0,130.63,70.77Z"/><path d="M131.68,65.5c.17-.26.4-.48.59-.73l3-4-.24-.33-10.4,5.06c1.34.53,2.22.86,3.08,1.24C130.19,67.72,130.18,67.72,131.68,65.5Z"/></g></g><path id="circle" class="cls-3" d="M140.29,2.13a81.56,81.56,0,1,0,81.56,81.56h0A81.56,81.56,0,0,0,140.29,2.13Zm0,159.62a78,78,0,1,1,78-78A78,78,0,0,1,140.29,161.75Z"/></g><g id="alus_lauva" data-name="alus lauva"><g class="cls-4"><g class="cls-4"><path d="M19.67,201H8.93l-2.64,6.34H0l14.61-33.66H15l14.61,33.66H22.18Zm-2.11-5.37-3.13-7.87-3.25,7.87Z"/><path d="M40.66,174.93v26.23H55.88v6.16H34.28V174.93Z"/><path d="M69.12,198.3a7.14,7.14,0,0,0,2.47,2.28,6.48,6.48,0,0,0,3.3.88,7,7,0,0,0,3.47-.88,6.78,6.78,0,0,0,2.49-2.28,5.42,5.42,0,0,0,.9-3V174.93H88v20.55a11.45,11.45,0,0,1-1.76,6.27,12.17,12.17,0,0,1-4.77,4.36,14.2,14.2,0,0,1-6.62,1.56,14,14,0,0,1-6.6-1.56,12.06,12.06,0,0,1-4.73-4.36,11.6,11.6,0,0,1-1.74-6.27V174.93H68.2v20.42A5.36,5.36,0,0,0,69.12,198.3Z"/><path d="M105.69,180.43a5.54,5.54,0,0,0-3.28.84,2.88,2.88,0,0,0-1.17,2.51,3.31,3.31,0,0,0,1.7,2.7,20.79,20.79,0,0,0,4.51,2.22,18.74,18.74,0,0,1,3.91,1.92,8.57,8.57,0,0,1,2.71,3,9.57,9.57,0,0,1,1.08,4.79,8.85,8.85,0,0,1-1.3,4.65,9,9,0,0,1-3.81,3.38,13.16,13.16,0,0,1-6,1.26,20,20,0,0,1-5.76-.86A17.76,17.76,0,0,1,93,204.19l2.82-5a15,15,0,0,0,3.83,2,11.29,11.29,0,0,0,3.87.8,7,7,0,0,0,3.52-.86,3,3,0,0,0,1.49-2.8q0-2.5-4.7-4.35a41.93,41.93,0,0,1-4.62-2.12A9.34,9.34,0,0,1,96,189a8,8,0,0,1-1.35-4.75,8.75,8.75,0,0,1,2.75-6.73,11.17,11.17,0,0,1,7.33-2.77,19.29,19.29,0,0,1,6,.81,20.54,20.54,0,0,1,4.71,2.31L113,182.76A15.84,15.84,0,0,0,105.69,180.43Z"/><path d="M142.08,174.93v26.23H157.3v6.16H135.7V174.93Z"/></g><g class="cls-4"><path d="M179.92,201H169.18l-2.64,6.34h-6.29l14.61-33.66h.35l14.61,33.66h-7.39Zm-2.11-5.37-3.13-7.87-3.25,7.87Z"/></g><g class="cls-4"><path d="M200.07,198.3a7,7,0,0,0,2.46,2.28,6.53,6.53,0,0,0,3.3.88,7,7,0,0,0,3.48-.88,6.83,6.83,0,0,0,2.48-2.28,5.42,5.42,0,0,0,.9-3V174.93H219v20.55a11.53,11.53,0,0,1-1.76,6.27,12.27,12.27,0,0,1-4.78,4.36,14.78,14.78,0,0,1-13.22,0,12.06,12.06,0,0,1-4.73-4.36,11.6,11.6,0,0,1-1.74-6.27V174.93h6.38v20.42A5.29,5.29,0,0,0,200.07,198.3Z"/></g><g class="cls-4"><path d="M253.48,174.93l-14.79,33.88-14.78-33.88h7.66L239,193.19l6.95-18.26Z"/></g><g class="cls-4"><path d="M270.69,201H260l-2.64,6.34H251l14.61-33.66H266l14.61,33.66H273.2Zm-2.11-5.37-3.13-7.87-3.25,7.87Z"/></g></g></g></g></g></svg>